<svg 
 xmlns="http://www.w3.org/2000/svg"
 xmlns:xlink="http://www.w3.org/1999/xlink"
 width="45px" height="17px">
<path fill-rule="evenodd"  fill="rgb(255, 255, 255)"
 d="M43.380,10.000 L11.620,10.000 C10.725,10.000 10.000,9.328 10.000,8.500 C10.000,7.671 10.725,7.000 11.620,7.000 L43.380,7.000 C44.274,7.000 45.000,7.671 45.000,8.500 C45.000,9.328 44.274,10.000 43.380,10.000 ZM43.380,3.000 L1.620,3.000 C0.725,3.000 -0.000,2.328 -0.000,1.500 C-0.000,0.671 0.725,-0.000 1.620,-0.000 L43.380,-0.000 C44.274,-0.000 45.000,0.671 45.000,1.500 C45.000,2.328 44.274,3.000 43.380,3.000 ZM21.620,14.000 L43.380,14.000 C44.274,14.000 45.000,14.671 45.000,15.499 C45.000,16.328 44.274,17.000 43.380,17.000 L21.620,17.000 C20.725,17.000 20.000,16.328 20.000,15.499 C20.000,14.671 20.725,14.000 21.620,14.000 Z"/>
</svg>