<svg xmlns="http://www.w3.org/2000/svg" width="33" height="25" viewBox="0 0 33 25">
  <defs>
    <style>
      .cls-1 {
        fill: #40b856;
        fill-rule: evenodd;
      }
    </style>
  </defs>
  <path class="cls-1" d="M697.25,9507h-27.5a2.77,2.77,0,0,0-2.75,2.78v19.44a2.77,2.77,0,0,0,2.75,2.78h27.5a2.77,2.77,0,0,0,2.75-2.78v-19.44A2.77,2.77,0,0,0,697.25,9507Zm-27.5,1.39h27.5a1.372,1.372,0,0,1,.286.06c-2.381,2.2-10.276,9.49-13.038,12.01a1.373,1.373,0,0,1-2,0c-2.763-2.52-10.658-9.81-13.038-12.01A1.372,1.372,0,0,1,669.75,9508.39Zm-1.375,20.83v-19.44a1.421,1.421,0,0,1,.077-0.39c1.822,1.69,7.331,6.78,10.9,10.06-3.56,3.09-9.07,8.36-10.906,10.13A1.244,1.244,0,0,1,668.375,9529.22Zm28.875,1.39h-27.5a1.589,1.589,0,0,1-.31-0.06c1.9-1.83,7.443-7.14,10.94-10.16,0.456,0.42.873,0.8,1.2,1.1a2.725,2.725,0,0,0,3.837,0c0.329-.3.745-0.68,1.2-1.1,3.5,3.02,9.041,8.33,10.94,10.16A1.589,1.589,0,0,1,697.25,9530.61Zm1.375-1.39a1.244,1.244,0,0,1-.073.36c-1.837-1.77-7.346-7.04-10.906-10.13,3.572-3.28,9.079-8.37,10.9-10.06a1.421,1.421,0,0,1,.077.39v19.44Z" transform="translate(-667 -9507)"/>
</svg>
