<svg xmlns="http://www.w3.org/2000/svg" width="21.969" height="20" viewBox="0 0 21.969 20">
  <defs>
    <style>
      .cls-1 {
        fill: #fff;
        fill-rule: evenodd;
      }
    </style>
  </defs>
  <path id="google_plus" data-name="google plus" class="cls-1" d="M463.8,3272.63c-0.561-.41-1.636-1.42-1.636-2.01,0-.69.19-1.03,1.193-1.85a4,4,0,0,0,1.641-3.23c0-1.63-.582-3.59-1.889-3.59h1.971l1.392-.96h-6.217c-2.787,0-5.409,2.01-5.409,4.55a4.5,4.5,0,0,0,4.735,4.61,5.426,5.426,0,0,0,.576-0.07,2.638,2.638,0,0,0-.316,1.19,2.527,2.527,0,0,0,.846,1.77H459.61c-3.451,0-6.593,1.93-6.593,4.3,0,2.34,3.4,3.65,6.85,3.65,3.934,0,5.965-1.82,5.965-4.15A4.445,4.445,0,0,0,463.8,3272.63Zm-3.32-3.24c-1.6-.05-3.124-1.86-3.4-4.05s0.8-3.86,2.4-3.81,3.123,1.8,3.4,3.99S462.082,3269.44,460.481,3269.39Zm-0.627,10.57c-2.385,0-4.108-1.07-4.108-2.96,0-1.85,2.136-3.39,4.522-3.36a5.1,5.1,0,0,1,1.547.26c1.3,0.94,2,1.47,2.257,2.54a2.953,2.953,0,0,1,.076.66C464.148,3278.99,463.208,3279.96,459.854,3279.96Zm12.407-18.06v2.9H475v1.92h-2.738v2.86h-1.83v-2.86h-2.74v-1.92h2.74v-2.9h1.83Z" transform="translate(-453.031 -3261)"/>
</svg>
