<?xml version="1.0" standalone="no"?>
<!DOCTYPE svg PUBLIC "-//W3C//DTD SVG 20010904//EN"
 "http://www.w3.org/TR/2001/REC-SVG-20010904/DTD/svg10.dtd">
<svg version="1.0" xmlns="http://www.w3.org/2000/svg"
 width="1441.000000pt" height="718.000000pt" viewBox="0 0 1441.000000 718.000000"
 preserveAspectRatio="xMidYMid meet">
<metadata>
Created by potrace 1.15, written by Peter Selinger 2001-2017
</metadata>
<g transform="translate(0.000000,718.000000) scale(0.100000,-0.100000)"
fill="#000000" stroke="none">
<path d="M7135 6638 c4 -233 8 -428 10 -434 3 -10 90 -64 103 -64 3 0 3 105 0
233 -3 137 -2 241 4 250 22 41 59 23 776 -382 910 -513 943 -531 954 -531 5 0
6 5 2 12 -4 6 -3 8 3 5 13 -8 35 17 25 29 -4 4 0 3 9 -4 12 -9 19 -9 29 1 12
10 12 9 1 -5 -7 -10 -17 -15 -22 -12 -5 3 -6 -2 -2 -12 5 -15 7 -15 15 0 5 9
13 14 17 11 5 -2 7 8 6 24 -2 21 1 28 11 24 7 -2 10 -12 7 -21 -3 -10 2 -7 12
6 12 17 20 20 29 13 10 -9 12 1 11 44 -2 30 1 52 6 50 4 -3 10 -1 13 4 7 10
-13 9 -31 -2 -7 -5 -9 -1 -6 13 3 11 10 17 15 13 6 -3 1 7 -11 24 -15 20 -309
191 -1001 581 -538 304 -981 552 -985 552 -3 0 -3 -190 0 -422z"/>
<path d="M793 5128 l-23 -11 0 -422 c0 -232 3 -577 7 -766 l6 -345 75 -42 c71
-40 75 -41 103 -27 l29 16 0 762 0 762 -75 43 c-79 45 -87 47 -122 30z"/>
<path d="M8180 4933 c-1 -31 34 -290 40 -296 12 -14 235 -95 238 -87 6 16 -41
137 -75 194 -20 32 -59 82 -88 110 -51 51 -115 94 -115 79z"/>
<path d="M7966 4692 c46 -189 205 -371 342 -389 40 -5 112 20 112 39 0 5 -47
72 -105 148 -91 120 -111 140 -148 153 -23 8 -79 29 -125 46 l-82 31 6 -28z"/>
<path d="M8730 4168 c0 -304 -3 -563 -6 -575 -9 -33 -30 -35 -82 -8 -26 13
-447 255 -937 538 l-890 513 -3 -105 c-3 -98 -1 -106 20 -127 13 -12 354 -213
758 -447 404 -233 885 -510 1068 -616 183 -107 340 -194 350 -195 16 -1 17 44
20 688 2 585 0 693 -12 711 -12 18 -265 175 -282 175 -2 0 -4 -249 -4 -552z"/>
<path d="M1125 4629 c-4 -5 -15 -9 -25 -9 -13 0 -17 -5 -14 -15 4 -8 10 -12
15 -9 5 3 9 1 9 -5 0 -6 11 -13 25 -17 14 -3 25 -10 25 -16 0 -5 5 -6 10 -3 6
3 10 2 10 -4 0 -6 11 -13 23 -16 l24 -6 6 -262 c4 -144 7 -414 7 -599 l0 -338
25 12 25 11 0 332 c0 182 3 453 7 602 l6 270 -33 12 c-19 6 -41 17 -49 25 -25
22 -90 46 -96 35z"/>
<path d="M6148 4248 c-85 -102 -123 -151 -112 -147 6 2 83 38 173 79 l162 75
-73 22 c-40 13 -81 23 -90 23 -9 0 -36 -24 -60 -52z"/>
<path d="M2070 4051 c-59 -12 -110 -52 -110 -86 1 -32 17 -36 56 -13 54 32
161 32 221 1 l41 -22 6 22 c16 64 -107 121 -214 98z"/>
<path d="M1683 3953 c-21 -8 -15 -89 8 -136 12 -23 23 -43 24 -45 1 -1 33 2
70 8 61 10 70 9 100 -10 l34 -21 16 31 c9 18 15 33 13 34 -2 1 -24 15 -50 29
-39 23 -54 26 -89 21 -38 -6 -42 -5 -35 11 6 16 4 16 -10 4 -16 -13 -16 -12
-4 11 11 21 11 23 -1 13 -11 -9 -14 -6 -14 17 0 15 4 26 9 23 5 -4 6 -1 2 5
-7 12 -50 15 -73 5z"/>
<path d="M1417 3803 l-27 -14 0 -274 0 -274 69 -41 c77 -44 79 -45 116 -28
l25 11 0 266 c0 146 -4 271 -8 277 -4 5 -39 28 -78 51 -66 37 -73 39 -97 26z"/>
<path d="M2435 3785 l-59 -34 -51 28 c-48 27 -53 28 -117 18 -64 -10 -67 -13
-84 -48 -14 -32 -20 -37 -43 -34 -14 3 -53 9 -85 15 -33 5 -63 10 -68 10 -4 0
-8 -17 -8 -39 0 -44 2 -45 124 -57 l65 -7 17 35 c15 33 21 36 81 46 61 10 68
9 118 -15 l53 -26 56 29 c85 44 89 48 81 83 -4 17 -10 31 -13 30 -4 0 -34 -16
-67 -34z"/>
<path d="M14355 3771 c-6 -5 -593 -284 -1305 -619 -712 -336 -2312 -1091
-3555 -1678 -1243 -587 -2275 -1069 -2292 -1071 -34 -5 -200 72 -5483 2566
l-1695 800 -8 -87 c-4 -48 -6 -125 -5 -172 l3 -85 90 -45 c50 -25 151 -74 225
-109 74 -36 196 -93 270 -129 74 -35 176 -83 225 -107 50 -23 140 -66 200 -95
61 -29 142 -67 180 -85 39 -18 146 -70 239 -114 92 -45 169 -81 171 -81 1 0
83 -39 181 -86 99 -47 211 -101 249 -119 39 -18 129 -61 200 -95 72 -34 166
-79 210 -100 79 -37 195 -92 403 -191 59 -28 143 -68 187 -89 44 -21 134 -64
200 -95 144 -69 298 -142 420 -200 129 -61 401 -191 623 -296 59 -28 143 -68
187 -89 44 -21 134 -64 200 -95 144 -69 298 -142 420 -200 50 -24 140 -66 200
-95 61 -29 151 -72 200 -95 50 -24 161 -77 249 -119 87 -42 160 -76 161 -76 1
0 83 -39 181 -86 99 -47 211 -101 249 -119 39 -18 124 -59 190 -90 66 -31 156
-74 200 -95 44 -21 143 -68 220 -105 77 -37 163 -78 191 -91 28 -13 57 -24 63
-24 21 0 7165 3410 7185 3429 17 17 18 31 11 180 -7 158 -13 178 -40 152z"/>
<path d="M4719 3105 c-138 -27 -247 -103 -269 -186 -15 -56 7 -115 62 -164 62
-56 197 -111 213 -85 3 5 11 7 17 4 7 -4 8 -2 4 4 -7 11 6 17 27 13 5 -1 6 3
2 9 -3 5 -1 10 4 10 6 0 11 5 11 10 0 6 -10 10 -22 10 -35 0 -120 44 -153 79
-22 24 -30 42 -30 69 0 84 89 145 231 161 93 10 104 14 104 42 0 39 -78 48
-201 24z"/>
<path d="M5668 2032 c-159 -91 -288 -168 -288 -172 0 -4 38 -27 260 -152 l66
-37 283 162 c156 90 283 167 284 172 0 9 -77 56 -268 165 l-50 29 -287 -167z"/>
<path d="M8119 1945 c-27 -14 -49 -60 -49 -98 0 -103 104 -211 258 -267 54
-20 65 -21 73 -9 7 12 9 12 9 0 0 -8 3 -11 6 -8 4 4 2 12 -4 20 -11 13 -28 86
-17 75 3 -3 8 -18 11 -34 6 -32 18 -50 13 -19 -2 11 0 26 5 34 6 10 5 12 -2 7
-7 -4 -12 -1 -12 7 0 8 -14 21 -32 28 -42 17 -95 65 -115 102 -11 22 -14 45
-9 87 5 45 3 60 -9 70 -23 19 -96 23 -126 5z"/>
<path d="M6705 1524 c-63 -20 -113 -54 -94 -64 8 -4 60 -20 116 -35 l101 -28
86 48 c47 27 86 52 86 56 0 31 -216 48 -295 23z"/>
</g>
</svg>
