<svg xmlns="http://www.w3.org/2000/svg" width="20.219" height="18.57" viewBox="0 0 20.219 18.57">
  <defs>
    <style>
      .cls-1 {
        fill: #fff;
        fill-rule: evenodd;
      }
    </style>
  </defs>
  <path id="linkedin" class="cls-1" d="M491.714,3280.16h4.141v-12.49h-4.141v12.49Zm14.748-12.91a4.585,4.585,0,0,0-4.017,2.13v-1.71H498.33v12.49h4.141v-6.77c0-1.43.722-2.82,2.356-2.82a2.683,2.683,0,0,1,2.632,2.79v6.8H511.6v-7.08C511.6,3268.16,508.271,3267.25,506.462,3267.25Zm-12.66-5.66a2.211,2.211,0,1,0,2.435,2.2A2.33,2.33,0,0,0,493.8,3261.59Z" transform="translate(-491.375 -3261.59)"/>
</svg>
