<svg width="667" height="459" xmlns="http://www.w3.org/2000/svg" xmlns:xlink="http://www.w3.org/1999/xlink" xmlns:svgjs="http://svgjs.com/svgjs" viewBox="0 0.162 667 458.676"><svg xmlns="http://www.w3.org/2000/svg" width="667" height="459" viewBox="1.989 1.004 666.011 457.996" fill="#d7d7d7"><path fill="#D7D7D7" paint-order="stroke fill markers" fill-rule="evenodd" d="M642.352 210.544a329.9 329.9 0 0 0-10.905-24.264h2.333a332.095 332.095 0 0 1 10.771 24.264h-2.199zM410.89 11.446V8.732c66.409 15.589 125.226 51.104 169.79 99.862v3.373C536.292 62.86 477.43 27.08 410.89 11.447zM50.936 164.36v-5.646C105.278 70.655 199.4 9.654 308.046 1.004v2.802c-109.252 8.913-203.65 71.14-257.11 160.554zM6.146 389.12h2.716A328.709 328.709 0 0 0 28.822 459h-2.756a330.992 330.992 0 0 1-19.92-69.879zm-4.157-74.73c1.57-27.897 6.582-54.889 14.62-80.555h3.027a329.37 329.37 0 0 0-14.861 80.555H1.989zm659.363-36.88h1.948a333.944 333.944 0 0 1 4.7 55.805c0 44.445-8.762 86.875-24.612 125.684h-1.836c15.847-38.652 24.61-80.93 24.61-125.224 0-19.179-1.663-37.973-4.81-56.266z"/></svg></svg>