<svg width="23" height="23" xmlns="http://www.w3.org/2000/svg" xmlns:xlink="http://www.w3.org/1999/xlink" xmlns:svgjs="http://svgjs.com/svgjs" viewBox="0 0 23 22.999"><svg xmlns="http://www.w3.org/2000/svg" width="23" height="23" viewBox="1.027 1.999 22 21.999" fill="#fff"><path fill="#FFF" paint-order="stroke fill markers" fill-rule="evenodd" d="M12.027 23.998c6.065 0 11-4.934 11-11 0-6.064-4.935-11-11-11s-11 4.936-11 11c0 6.066 4.935 11 11 11zm0-20.9c5.46 0 9.901 4.441 9.901 9.9 0 5.46-4.441 9.902-9.9 9.902-5.46 0-9.902-4.442-9.902-9.901 0-5.46 4.441-9.901 9.901-9.901zM7.25 13.55h8.228l-2.153 2.154a.547.547 0 0 0 .39.937.547.547 0 0 0 .39-.16l3.091-3.092a.548.548 0 0 0 0-.776l-3.09-3.091a.547.547 0 0 0-.777 0 .547.547 0 0 0 0 .776l2.153 2.153H7.25a.551.551 0 0 0-.551.552c0 .305.246.547.551.547z"/></svg></svg>