<svg xmlns="http://www.w3.org/2000/svg" width="43" height="40" viewBox="0 0 43 40">
  <defs>
    <style>
      .cls-1 {
        fill: #fff;
        fill-rule: evenodd;
      }
    </style>
  </defs>
  <path class="cls-1" d="M491.891,4299.83c-2.235,11.39,1.232,19.56,10.348,25.33,7.16,4.53,19.222,5.6,26.607-1.44a17.859,17.859,0,0,1-7.4,7.64c-7.612,4.23-17.8,3.3-24.925-2.21-5.561-4.29-8.96-9.8-9.472-16.81A15.382,15.382,0,0,1,491.891,4299.83Zm11.1-3.52c-1.577,7.93,1.3,14.46,8.087,18.25,5.873,3.27,13.338,3.66,18.923-1.82-1.486,4.31-6.529,7.41-11.285,7.7-8.105.51-14.742-3.33-17.783-10.16C498.7,4305.26,499.539,4299.58,502.991,4296.31Zm9.218-2.31a10.08,10.08,0,0,0,4.879,10.59c3.556,2.3,7.413,2.92,11.315.54-1.29,2.43-4.061,3.88-7.467,3.67a10.742,10.742,0,0,1-9.594-6.4A7.623,7.623,0,0,1,512.209,4294Z" transform="translate(-487 -4294)"/>
</svg>
