<svg xmlns="http://www.w3.org/2000/svg" xmlns:xlink="http://www.w3.org/1999/xlink" width="26" height="22.03" viewBox="0 0 26 22.03">
  <defs>
    <style>
      .cls-1 {
        fill: #fff;
        fill-rule: evenodd;
        filter: url(#filter);
      }
    </style>
    <filter id="filter" x="407" y="3262.97" width="26" height="22.03" filterUnits="userSpaceOnUse">
      <feOffset result="offset" dx="-2.331" dy="1.888" in="SourceAlpha"/>
      <feGaussianBlur result="blur" stdDeviation="1.732"/>
      <feFlood result="flood" flood-opacity="0.25"/>
      <feComposite result="composite" operator="in" in2="blur"/>
      <feBlend result="blend" in="SourceGraphic"/>
    </filter>
  </defs>
  <path id="twitter" class="cls-1" d="M431.542,3265.06a7.545,7.545,0,0,1-2.277.65,4.409,4.409,0,0,0,1.71-2.25,6.5,6.5,0,0,1-2.56.92h0a4.231,4.231,0,0,0-2.966-1.41,4.082,4.082,0,0,0-3.923,4.26,4.233,4.233,0,0,0,.1.92h0a11.892,11.892,0,0,1-8.643-4.44,4.346,4.346,0,0,0,1.245,5.61,2.67,2.67,0,0,1-1.792-.47,3.967,3.967,0,0,0,3.166,4.03,3.2,3.2,0,0,1-1.709.13,3.876,3.876,0,0,0,3.669,2.8,7.3,7.3,0,0,1-5.919,1.71,12.24,12.24,0,0,0,6.421,1.82,11.654,11.654,0,0,0,11.772-12.04,0.117,0.117,0,0,1,0-.02c0-.02,0-0.03,0-0.05s0-.04,0-0.06A6.82,6.82,0,0,0,431.542,3265.06Z" transform="translate(-407 -3262.97)"/>
</svg>
